<svg xmlns="http://www.w3.org/2000/svg" xmlns:xlink="http://www.w3.org/1999/xlink" viewBox="0 0 377.01 169.12"><defs><style>.cls-1{fill:url(#linear-gradient);}.cls-2{fill:url(#linear-gradient-2);}.cls-3{fill:url(#linear-gradient-3);}.cls-4{fill:url(#linear-gradient-4);}.cls-5{fill:#fff;}</style><linearGradient id="linear-gradient" x1="195.06" y1="151.19" x2="210.52" y2="-92.98" gradientUnits="userSpaceOnUse"><stop offset="0" stop-color="#ff4a62"/><stop offset="0.5" stop-color="#ff8227"/><stop offset="1" stop-color="#ff6426"/></linearGradient><linearGradient id="linear-gradient-2" x1="198.95" y1="151.44" x2="214.41" y2="-92.73" xlink:href="#linear-gradient"/><linearGradient id="linear-gradient-3" x1="263.21" y1="155.51" x2="278.67" y2="-88.66" xlink:href="#linear-gradient"/><linearGradient id="linear-gradient-4" x1="360.92" y1="161.69" x2="376.37" y2="-82.48" xlink:href="#linear-gradient"/></defs><g id="Layer_2" data-name="Layer 2"><g id="Layer_1-2" data-name="Layer 1"><path class="cls-1" d="M201.55,104.65c4,0,7.07-2.68,7.07-7.41s-3-7.42-7.07-7.42H188.78v14.83Z"/><path class="cls-2" d="M205.13,115H188.78v16.64h16.35c4.58,0,8.06-3.06,8.06-8.36S209.74,115,205.13,115Z"/><path class="cls-3" d="M375.66,88.16A48.84,48.84,0,0,0,364,66.57a1.76,1.76,0,0,0-2.52,0l-24,24a2.94,2.94,0,0,1-4.25-4.05l1.11-1.55A31.58,31.58,0,0,0,333,41l-15.41-15a1.76,1.76,0,0,0-2.49,0L275.21,65.91l-13.8,13.5a3.47,3.47,0,1,1-4.83-5l8.28-7.91A39.54,39.54,0,0,0,265.49,10L256,.51a1.75,1.75,0,0,0-2.37-.09L175.42,66.55a57.45,57.45,0,0,0-4.55,4.55c-.12.12-.22.25-.34.38a58.78,58.78,0,0,0,44.12,97.64h96.88a8.76,8.76,0,0,0,5.21-1.73l37-27.57V114.51c0-5.4-3.17-7.8-7.33-7.79-3.47,0-7.9,1.67-11.63,4.68v31H322.12V97.17h12.66v5.52a24.09,24.09,0,0,1,16.13-6.78h0c8.3,0,15.49,5.34,15.49,17v15.6a45.7,45.7,0,0,0,9.26-40.36ZM207.32,142.4h-32V79.08h29c10,0,18.07,6.75,18,17a14.38,14.38,0,0,1-6.6,12.44h0a15.68,15.68,0,0,1,11.17,15.43C226.91,135.13,218.15,142.4,207.32,142.4Zm69.9,0H264.55v-5.47a23.17,23.17,0,0,1-15.61,6.74c-8.28,0-15.21-5.25-15.21-17V97.17H246.4v27.91c0,5.17,2.63,7.78,6.78,7.79a18.17,18.17,0,0,0,11.38-4.62V97.17h12.67Zm38-34.7a11.29,11.29,0,0,0-1.44,0,24.82,24.82,0,0,0-15.31,5.89v28.86H285.84V97.17h12.67v6.22c5.24-5,11.86-7.54,17.62-7.54h0c.41,0,.81,0,1.21,0Z"/><path class="cls-4" d="M365.55,133.91l-7.47,7.64a.51.51,0,0,0,.36.86h7.29a.68.68,0,0,0,.68-.67l0-7.45A.53.53,0,0,0,365.55,133.91Z"/><path class="cls-5" d="M22.27,97.84c13.94,0,20.39,5.85,20.39,15.91v29.07H29.41v-5.25H27.52c-2.92,4.3-7,6.11-13.24,6.11-8,0-14.28-4-14.28-13.25,0-8.68,5.33-14.19,18.58-14.19H29.41v-2.49c0-4.3-2.49-6.28-7.22-6.28H21c-4.38,0-7.13,2-7.13,6.19H1C.86,103.69,8,97.84,21.07,97.84ZM12.9,129.06c0,2.92,2.24,4.64,6.71,4.64,5.07,0,9.8-2.06,9.8-8.43v-1.12h-9.2C15,124.15,12.9,126,12.9,129.06Z"/><path class="cls-5" d="M96.58,79.18v63.64H83.34v-5H81.53c-2.75,3.7-6.88,5.85-12.56,5.85h-1.2c-10,0-16.6-6.11-16.6-19.61v-6.71c0-13.42,6.62-19.52,16.6-19.52H69c5.59,0,9.72,2.06,12.56,5.59h1.81V79.18Zm-32.16,38v7.14c0,5.76,3.52,8.77,8.85,8.77h1.21c5.42,0,8.86-3,8.86-8.77v-7.14c0-5.68-3.36-8.78-8.86-8.78H73.27C67.94,108.41,64.42,111.51,64.42,117.19Z"/><path class="cls-5" d="M127.8,97.84c13.93,0,20.38,5.85,20.38,15.91v29.07H134.94v-5.25H133c-2.92,4.3-7,6.11-13.24,6.11-8,0-14.28-4-14.28-13.25,0-8.68,5.34-14.19,18.58-14.19h10.84v-2.49c0-4.3-2.5-6.28-7.23-6.28h-1.2c-4.39,0-7.14,2-7.14,6.19h-12.9c-.08-10,7-15.82,20.12-15.82Zm-9.37,31.22c0,2.92,2.23,4.64,6.7,4.64,5.08,0,9.81-2.06,9.81-8.43v-1.12h-9.21C120.49,124.15,118.43,126,118.43,129.06Z"/></g></g></svg>