<svg xmlns="http://www.w3.org/2000/svg" xmlns:xlink="http://www.w3.org/1999/xlink" viewBox="0 0 570 169.12"><defs><style>.cls-1{fill:#fff;}.cls-2{fill:url(#linear-gradient);}.cls-3{fill:url(#linear-gradient-2);}.cls-4{fill:url(#linear-gradient-3);}.cls-5{fill:url(#linear-gradient-4);}</style><linearGradient id="linear-gradient" x1="388.05" y1="151.19" x2="403.51" y2="-92.98" gradientUnits="userSpaceOnUse"><stop offset="0" stop-color="#ff4a62"/><stop offset="0.5" stop-color="#ff8227"/><stop offset="1" stop-color="#ff6426"/></linearGradient><linearGradient id="linear-gradient-2" x1="391.94" y1="151.44" x2="407.4" y2="-92.73" xlink:href="#linear-gradient"/><linearGradient id="linear-gradient-3" x1="456.2" y1="155.51" x2="471.66" y2="-88.66" xlink:href="#linear-gradient"/><linearGradient id="linear-gradient-4" x1="553.9" y1="161.69" x2="569.36" y2="-82.48" xlink:href="#linear-gradient"/></defs><g id="Layer_2" data-name="Layer 2"><g id="Layer_1-2" data-name="Layer 1"><path class="cls-1" d="M41,101.72l-3,8.38a28.65,28.65,0,0,0-13.5-3.68c-7.25,0-11.66,5.41-11.58,13.37s4.39,13.37,11.76,13.37a29.47,29.47,0,0,0,13.53-3.73l3.06,8.27a29.29,29.29,0,0,1-17.65,6C9.31,143.68,0,133,0,119.79c.07-13.48,9.49-24,23.49-23.88A29.23,29.23,0,0,1,41,101.72Z"/><path class="cls-1" d="M92.33,142.41H79.66v-4.85a21.27,21.27,0,0,1-14.57,6.12c-11.49,0-19.54-10.59-19.54-23.89S53.6,95.91,65.09,95.91A21.25,21.25,0,0,1,79.66,102V97.17H92.33ZM79.66,127.62V112a17.77,17.77,0,0,0-11.77-5.36c-5.91,0-9.49,5.19-9.49,13.19S61.85,133,67.89,133A17.77,17.77,0,0,0,79.66,127.62Z"/><path class="cls-1" d="M131.67,95.84c.4,0,.81,0,1.21,0l-2.09,11.83a11.29,11.29,0,0,0-1.44,0A24.82,24.82,0,0,0,114,113.55v28.86H101.38V97.17H114v6.22c5.24-5,11.86-7.54,17.63-7.54Z"/><path class="cls-1" d="M181.38,142.41H168.71v-4.92a21.21,21.21,0,0,1-14.64,6.19c-11.49,0-19.54-10.59-19.54-23.89s8-23.93,19.76-23.88a21.32,21.32,0,0,1,14.42,6.18v-23h12.67ZM156.92,133c3.56,0,8.21-1.83,11.79-5.43V112a17.63,17.63,0,0,0-11.93-5.43c-6,0-9.45,5.33-9.4,13.19S150.79,133,156.92,133Z"/><path class="cls-1" d="M236.08,142.41H223.42v-4.85a21.27,21.27,0,0,1-14.57,6.12c-11.49,0-19.55-10.59-19.55-23.89s8.06-23.88,19.55-23.88A21.25,21.25,0,0,1,223.42,102V97.17h12.66Zm-12.66-14.79V112a17.77,17.77,0,0,0-11.77-5.36c-5.91,0-9.5,5.19-9.5,13.19s3.46,13.18,9.5,13.19A17.77,17.77,0,0,0,223.42,127.62Z"/><path class="cls-1" d="M273.93,95.91c8.3,0,15.49,5.34,15.49,17v29.49H276.75v-27.9c0-5.4-3.17-7.8-7.32-7.79-3.48,0-7.91,1.67-11.63,4.68v31H245.13V97.17H257.8v5.52a24.07,24.07,0,0,1,16.13-6.78Z"/><path class="cls-1" d="M345.17,119.79c0,13.21-9.5,23.89-24.12,23.89S296.92,133,296.92,119.79s9.59-24,24.13-23.88S345.17,106.58,345.17,119.79Zm-35.41,0c0,7.65,4.37,13,11.29,13s11.28-5.32,11.28-13-4.29-13-11.28-13S309.69,112.15,309.76,119.79Z"/><path class="cls-2" d="M394.53,104.65c4.05,0,7.08-2.68,7.08-7.41s-3-7.42-7.08-7.42H381.77v14.83Z"/><path class="cls-3" d="M398.12,115H381.77v16.64h16.35c4.58,0,8.06-3.06,8.06-8.36S402.73,115,398.12,115Z"/><path class="cls-4" d="M568.65,88.16A48.94,48.94,0,0,0,557,66.57a1.76,1.76,0,0,0-2.52,0l-24,24a2.94,2.94,0,0,1-4.25-4.05l1.1-1.55A31.59,31.59,0,0,0,526,41l-15.42-15a1.74,1.74,0,0,0-2.48,0L468.2,65.91l-13.8,13.5a3.47,3.47,0,1,1-4.83-5l8.28-7.91A39.54,39.54,0,0,0,458.48,10L449,.51a1.77,1.77,0,0,0-2.38-.09L368.4,66.55a61,61,0,0,0-4.55,4.55l-.33.38a58.78,58.78,0,0,0,44.11,97.64h96.88a8.77,8.77,0,0,0,5.22-1.73l37-27.57V114.51c0-5.4-3.17-7.8-7.33-7.79-3.48,0-7.9,1.67-11.63,4.68v31H515.11V97.17h12.66v5.52a24.09,24.09,0,0,1,16.13-6.78h0c8.3,0,15.49,5.34,15.49,17v15.6a45.79,45.79,0,0,0,9.26-40.36ZM400.31,142.4h-32V79.08h29c10,0,18.07,6.75,18,17a14.38,14.38,0,0,1-6.6,12.44h0a15.66,15.66,0,0,1,11.16,15.43C419.89,135.13,411.14,142.4,400.31,142.4Zm69.89,0H457.54v-5.47a23.19,23.19,0,0,1-15.61,6.74c-8.28,0-15.21-5.25-15.21-17V97.17h12.66v27.91c0,5.17,2.63,7.78,6.78,7.79a18.17,18.17,0,0,0,11.38-4.62V97.17H470.2Zm38.05-34.7a11.29,11.29,0,0,0-1.44,0,24.87,24.87,0,0,0-15.32,5.89v28.86H478.83V97.17h12.66v6.22c5.25-5,11.87-7.54,17.63-7.54h0c.41,0,.81,0,1.21,0Z"/><path class="cls-5" d="M558.54,133.91l-7.47,7.64a.51.51,0,0,0,.36.86h7.29a.69.69,0,0,0,.68-.67l.05-7.45A.53.53,0,0,0,558.54,133.91Z"/></g></g></svg>